<svg
  xmlns="http://www.w3.org/2000/svg"
  xmlns:xlink="http://www.w3.org/1999/xlink"
  width="500"
  height="500"
  viewBox="0 0 375 375"
  version="1.0"
>
  <rect fill="#000000" x="-37.5" y="-37.5" width="450" height="450" fill-opacity="1" />
  <g fill="#ffffff" fill-opacity="1">
    <g transform="translate(115, 200)">
      <g>
        <path
          d="M 114.3125 5.4375 C 106.625 5.4375 100.910156 3.835938 97.171875 0.640625 C 93.441406 -2.554688 91.578125 -8 91.578125 -15.6875 C 91.578125 -22.09375 92.910156 -31.320312 95.578125 -43.375 C 98.242188 -55.4375 99.578125 -64.566406 99.578125 -70.765625 C 99.578125 -83.992188 93.28125 -90.609375 80.6875 -90.609375 C 73 -90.609375 66.21875 -87.832031 60.34375 -82.28125 C 54.476562 -76.738281 51.015625 -70.125 49.953125 -62.4375 C 49.734375 -61.582031 49.515625 -59.820312 49.296875 -57.15625 C 49.085938 -54.488281 48.769531 -52.617188 48.34375 -51.546875 C 48.132812 -50.910156 47.546875 -49.953125 46.578125 -48.671875 C 45.617188 -47.390625 45.035156 -46.320312 44.828125 -45.46875 L 38.75 -17.609375 L 24.65625 47.703125 L 19.21875 73 L 16.65625 85.484375 C 16.226562 87.410156 14.144531 89.492188 10.40625 91.734375 C 6.664062 93.972656 3.726562 95.09375 1.59375 95.09375 C 0.320312 95.09375 -0.3125 94.5625 -0.3125 93.5 L 27.53125 -36.5 C 23.050781 -32.65625 17.289062 -28.707031 10.25 -24.65625 C 3.207031 -20.601562 -2.445312 -18.578125 -6.71875 -18.578125 L -8.640625 -18.890625 C -8.003906 -21.453125 -5.125 -24.117188 0 -26.890625 C 5.125 -29.671875 10.882812 -33.460938 17.28125 -38.265625 C 23.6875 -43.066406 28.382812 -48.882812 31.375 -55.71875 C 32.445312 -57.851562 33.941406 -64.304688 35.859375 -75.078125 C 37.785156 -85.859375 39.28125 -92 40.34375 -93.5 C 42.90625 -96.488281 45.359375 -98.410156 47.703125 -99.265625 C 50.265625 -100.960938 52.398438 -101.8125 54.109375 -101.8125 L 56.03125 -100.859375 C 57.3125 -96.804688 57.3125 -92.75 56.03125 -88.6875 C 58.382812 -89.96875 60.679688 -91.195312 62.921875 -92.375 C 65.160156 -93.550781 67.503906 -94.671875 69.953125 -95.734375 C 72.410156 -96.804688 74.8125 -97.769531 77.15625 -98.625 C 79.507812 -99.476562 82.019531 -100.171875 84.6875 -100.703125 C 87.351562 -101.234375 89.96875 -101.5 92.53125 -101.5 C 100.851562 -101.5 106.988281 -99.738281 110.9375 -96.21875 C 114.894531 -92.695312 116.875 -86.878906 116.875 -78.765625 C 116.875 -72.785156 115.429688 -63.816406 112.546875 -51.859375 C 109.660156 -39.910156 108.21875 -30.945312 108.21875 -24.96875 C 108.21875 -19.632812 109.765625 -15.046875 112.859375 -11.203125 C 115.960938 -7.359375 120.179688 -5.4375 125.515625 -5.4375 C 128.503906 -5.4375 134.691406 -9.4375 144.078125 -17.4375 C 153.472656 -25.445312 160.835938 -29.453125 166.171875 -29.453125 C 167.878906 -29.453125 168.734375 -28.8125 168.734375 -27.53125 C 167.878906 -25.394531 165.53125 -23.3125 161.6875 -21.28125 C 157.851562 -19.257812 155.828125 -18.144531 155.609375 -17.9375 C 150.703125 -13.238281 144.40625 -8.164062 136.71875 -2.71875 C 129.03125 2.71875 121.5625 5.4375 114.3125 5.4375 Z M 114.3125 5.4375 " />
      </g>
    </g>
  </g>
</svg>